<?xml version="1.0" standalone="no"?>
<!DOCTYPE svg PUBLIC "-//W3C//DTD SVG 20010904//EN"
 "http://www.w3.org/TR/2001/REC-SVG-20010904/DTD/svg10.dtd">
<svg version="1.0" xmlns="http://www.w3.org/2000/svg"
 width="512.000000pt" height="512.000000pt" viewBox="0 0 512.000000 512.000000"
 preserveAspectRatio="xMidYMid meet">

<g transform="translate(0.000000,512.000000) scale(0.100000,-0.100000)"
fill="#000000" stroke="none">
<path d="M1053 5096 l-28 -24 -3 -231 -3 -231 -84 0 c-89 0 -130 -10 -151 -38
-10 -13 -13 -74 -14 -243 l0 -227 -105 -4 c-93 -3 -108 -6 -127 -26 l-23 -23
-3 -1977 c-2 -1341 0 -1989 7 -2013 7 -23 20 -40 36 -47 20 -9 522 -12 2010
-12 l1984 0 28 24 28 24 0 2001 0 2000 -23 23 c-19 20 -34 23 -127 26 l-105 4
0 227 c-1 169 -4 230 -14 243 -21 28 -62 38 -151 38 l-84 0 -3 231 -3 231 -28
24 -28 24 -1479 0 -1479 0 -28 -24z m2875 -318 l2 -168 -1370 0 -1370 0 0 163
c0 90 3 167 7 170 3 4 619 6 1367 5 l1361 -3 3 -167z m252 -508 l0 -170 -1620
0 -1620 0 0 170 0 170 1620 0 1620 0 0 -170z m258 -2222 l2 -1878 -1880 0
-1880 0 0 1873 c0 1031 3 1877 7 1880 3 4 848 6 1877 5 l1871 -3 3 -1877z"/>
<path d="M2775 3111 c-412 -69 -760 -132 -771 -138 -12 -7 -27 -27 -33 -44 -8
-22 -11 -233 -11 -681 l0 -648 -40 25 c-155 98 -402 104 -573 13 -315 -168
-315 -548 0 -716 32 -16 87 -38 123 -47 77 -20 217 -22 292 -5 142 34 269 129
329 246 l34 68 3 607 3 608 27 5 c15 3 313 53 662 111 349 58 645 107 658 110
l22 5 0 -301 c0 -165 -3 -299 -7 -297 -5 2 -35 17 -69 35 -130 68 -286 82
-432 40 -146 -42 -250 -125 -309 -245 -25 -51 -28 -68 -28 -157 0 -90 3 -106
29 -160 39 -78 114 -152 201 -197 94 -48 160 -63 280 -62 192 0 354 82 444
222 62 99 61 80 61 912 0 693 -1 758 -17 780 -24 36 -33 40 -83 39 -25 -1
-382 -58 -795 -128z m725 -175 c0 -110 -2 -125 -17 -130 -21 -6 -1327 -226
-1343 -226 -7 0 -10 41 -8 127 l3 127 660 112 c363 62 670 112 683 113 22 1
22 -1 22 -123z m-219 -992 c112 -32 197 -115 213 -206 18 -99 -60 -212 -179
-258 -79 -31 -214 -34 -296 -7 -189 62 -258 241 -144 375 34 40 104 82 164 98
65 18 178 17 242 -2z m-1574 -419 c60 -7 125 -38 174 -82 166 -150 54 -381
-199 -412 -211 -25 -402 93 -402 249 0 83 66 172 159 214 60 27 154 45 201 40
14 -2 44 -6 67 -9z"/>
</g>
</svg>
