<?xml version="1.0" standalone="no"?>
<!DOCTYPE svg PUBLIC "-//W3C//DTD SVG 20010904//EN"
 "http://www.w3.org/TR/2001/REC-SVG-20010904/DTD/svg10.dtd">
<svg version="1.0" xmlns="http://www.w3.org/2000/svg"
 width="512.000000pt" height="512.000000pt" viewBox="0 0 512.000000 512.000000"
 preserveAspectRatio="xMidYMid meet">

<g transform="translate(0.000000,512.000000) scale(0.100000,-0.100000)"
fill="#000000" stroke="none">
<path d="M4320 4640 l0 -80 80 0 80 0 0 80 0 80 -80 0 -80 0 0 -80z"/>
<path d="M4080 4400 l0 -80 80 0 80 0 0 80 0 80 -80 0 -80 0 0 -80z"/>
<path d="M4560 4400 l0 -80 80 0 80 0 0 80 0 80 -80 0 -80 0 0 -80z"/>
<path d="M292 4309 c-45 -13 -109 -79 -122 -127 -7 -28 -9 -533 -8 -1644 l3
-1603 24 -38 c13 -21 42 -50 64 -65 l41 -27 1548 -3 1549 -2 24 24 c21 21 25
35 25 80 l0 55 48 5 c345 42 582 133 830 318 322 240 539 591 619 1003 24 125
24 424 0 550 -23 116 -77 291 -120 386 -217 474 -664 824 -1166 909 -64 11
-137 23 -163 26 l-48 5 0 55 c0 45 -4 59 -25 79 l-24 25 -1533 -1 c-934 0
-1546 -5 -1566 -10z m2988 -1749 l0 -1600 -1468 0 c-1128 0 -1471 3 -1480 12
-17 17 -17 3159 0 3176 9 9 352 12 1480 12 l1468 0 0 -1600z m348 1414 c179
-32 374 -113 543 -226 106 -71 270 -228 347 -333 276 -375 354 -867 207 -1312
-59 -180 -195 -403 -328 -541 -237 -245 -562 -402 -904 -436 l-53 -5 0 402 0
402 62 12 c124 24 268 113 354 221 207 257 188 617 -44 850 -89 89 -205 155
-309 175 l-63 12 0 402 0 402 53 -5 c28 -3 89 -12 135 -20z m-60 -984 c35 -16
88 -54 121 -85 200 -190 200 -500 0 -690 -58 -55 -153 -108 -216 -121 l-33 -6
0 78 0 79 68 36 c234 123 225 460 -16 569 l-52 24 0 79 0 80 33 -7 c17 -4 60
-20 95 -36z m-52 -394 c3 -20 3 -52 0 -71 -7 -34 -49 -95 -67 -95 -5 0 -9 61
-9 138 l1 137 34 -37 c19 -20 37 -52 41 -72z"/>
<path d="M1560 3824 c-526 -84 -942 -484 -1056 -1014 -26 -119 -26 -381 0
-500 55 -257 169 -466 355 -651 153 -154 303 -247 504 -314 372 -124 783 -65
1117 158 96 64 273 241 337 337 142 213 223 473 223 720 0 240 -81 509 -213
705 -56 83 -77 108 -170 203 -166 169 -383 288 -627 343 -118 27 -345 33 -470
13z m370 -159 c562 -85 976 -590 947 -1154 -21 -403 -245 -757 -595 -939 -161
-83 -294 -120 -478 -129 -259 -13 -535 77 -744 245 -519 415 -561 1190 -90
1662 254 254 605 369 960 315z"/>
<path d="M1842 3235 c-420 -37 -428 -38 -463 -105 -17 -32 -19 -61 -19 -341
l0 -307 -122 -4 c-103 -4 -131 -8 -173 -29 -64 -30 -124 -90 -155 -154 -33
-69 -34 -199 -2 -265 35 -71 75 -114 144 -151 58 -31 70 -34 148 -33 72 0 93
4 136 26 75 39 107 70 145 140 l34 63 3 326 3 325 392 32 c216 18 395 32 400
32 4 0 7 -69 7 -154 l0 -154 -122 -4 c-105 -3 -130 -8 -173 -28 -64 -31 -124
-91 -155 -155 -35 -72 -35 -198 0 -270 116 -238 442 -246 569 -15 l36 65 3
543 c3 602 4 593 -62 633 -42 26 -107 24 -574 -16z m478 -205 c0 -76 -1 -80
-22 -80 -13 0 -183 -14 -378 -30 -195 -16 -365 -30 -377 -30 -22 0 -23 4 -23
80 l0 80 38 1 c20 0 181 13 357 28 176 16 339 29 363 30 l42 1 0 -80z m-960
-805 c0 -109 -12 -148 -59 -188 -63 -53 -152 -48 -212 12 -60 60 -65 149 -12
212 40 47 75 58 186 59 l97 0 0 -95z m960 0 c0 -109 -12 -148 -59 -188 -114
-96 -285 9 -257 158 8 42 50 93 91 111 18 8 69 13 128 14 l97 0 0 -95z"/>
<path d="M480 1200 l0 -80 240 0 240 0 0 80 0 80 -240 0 -240 0 0 -80z"/>
<path d="M1120 1200 l0 -80 80 0 80 0 0 80 0 80 -80 0 -80 0 0 -80z"/>
<path d="M3801 3737 c-29 -76 -45 -126 -41 -129 3 -2 46 -23 95 -47 228 -110
395 -279 510 -515 198 -406 135 -877 -163 -1223 -87 -101 -209 -195 -332 -256
-58 -29 -107 -53 -110 -55 -5 -3 42 -142 51 -148 3 -2 55 21 116 51 351 173
604 501 689 895 26 119 26 381 0 500 -90 418 -362 754 -749 924 l-58 26 -8
-23z"/>
<path d="M3696 3452 c-2 -4 -16 -38 -30 -74 l-25 -67 54 -25 c247 -113 422
-355 457 -632 43 -337 -148 -679 -457 -820 l-54 -25 25 -67 c14 -37 29 -70 32
-74 4 -4 42 11 84 32 201 101 339 241 439 445 71 146 93 247 93 420 0 147 -17
243 -66 360 -69 164 -207 333 -353 430 -88 59 -191 109 -199 97z"/>
<path d="M4320 4160 l0 -80 80 0 80 0 0 80 0 80 -80 0 -80 0 0 -80z"/>
</g>
</svg>
