<?xml version="1.0" standalone="no"?>
<!DOCTYPE svg PUBLIC "-//W3C//DTD SVG 20010904//EN"
 "http://www.w3.org/TR/2001/REC-SVG-20010904/DTD/svg10.dtd">
<svg version="1.0" xmlns="http://www.w3.org/2000/svg"
 width="512.000000pt" height="512.000000pt" viewBox="0 0 512.000000 512.000000"
 preserveAspectRatio="xMidYMid meet">

<g transform="translate(0.000000,512.000000) scale(0.100000,-0.100000)"
fill="#000000" stroke="none">
<path d="M2455 5049 c-510 -363 -947 -948 -1269 -1702 -391 -913 -599 -1937
-632 -3100 l-7 -247 2013 0 2013 0 -7 247 c-32 1133 -233 2142 -603 3033 -331
795 -783 1410 -1306 1774 -52 36 -96 66 -98 66 -2 0 -49 -32 -104 -71z m199
-292 c97 -79 102 -85 111 -138 7 -48 62 -136 108 -173 20 -16 68 -39 105 -51
66 -21 69 -24 145 -121 319 -406 594 -946 799 -1569 232 -709 367 -1491 402
-2342 l5 -123 -44 0 c-38 0 -45 3 -50 23 -7 33 -62 515 -80 712 -58 621 -135
949 -297 1270 -90 179 -180 305 -321 452 -72 74 -252 227 -304 257 -7 4 -24
-12 -45 -41 l-33 -48 -7 40 c-4 22 -7 56 -7 76 l-1 36 -241 88 c-276 101 -244
103 -300 -19 -19 -41 -36 -75 -39 -75 -3 0 -20 34 -39 75 -56 121 -24 119
-299 19 l-242 -88 -1 -36 c0 -20 -3 -54 -7 -76 l-7 -40 -33 48 c-21 29 -38 45
-45 41 -7 -4 -58 -43 -114 -86 -434 -338 -674 -815 -768 -1528 -8 -63 -26
-230 -40 -370 -26 -264 -72 -668 -80 -708 -5 -19 -12 -22 -50 -22 l-44 0 5
123 c67 1612 507 3035 1217 3933 60 75 67 81 124 97 34 9 80 31 104 50 50 38
106 124 114 176 4 20 10 43 14 51 8 15 181 160 191 160 3 0 45 -33 94 -73z
m-205 -2063 l100 -197 -73 -155 -73 -155 -123 -39 c-106 -34 -124 -37 -138
-25 -204 171 -272 227 -275 227 -2 0 -26 -100 -52 -222 l-48 -223 -92 -95
c-151 -157 -268 -299 -375 -456 -70 -102 -71 -100 -39 87 82 489 246 845 511
1107 l74 72 149 -211 c120 -171 150 -209 156 -193 4 10 17 138 29 284 30 378
21 343 88 368 32 11 62 21 69 21 6 1 57 -87 112 -195z m398 175 c73 -24 63 13
93 -369 12 -146 25 -274 29 -284 6 -16 36 22 156 192 l149 212 69 -67 c270
-266 434 -618 516 -1112 32 -188 31 -189 -41 -83 -96 139 -227 300 -352 430
l-112 117 -48 223 c-27 122 -51 222 -53 222 -2 0 -61 -48 -131 -107 -70 -59
-134 -113 -144 -120 -14 -12 -33 -9 -138 25 l-123 39 -73 155 -73 155 100 197
c55 108 104 196 108 196 4 0 35 -9 68 -21z m-51 -959 l217 -70 43 35 c23 19
45 35 47 35 3 0 12 -30 21 -67 15 -67 16 -69 144 -198 229 -232 428 -506 582
-800 192 -366 310 -595 310 -599 0 -3 -720 -6 -1600 -6 -880 0 -1600 3 -1600
6 0 4 129 254 310 599 156 297 354 570 582 800 128 129 129 130 144 197 9 38
18 68 21 68 2 0 24 -16 47 -35 l43 -35 214 70 c118 38 224 69 236 70 13 0 120
-31 239 -70z"/>
</g>
</svg>
