<?xml version="1.0" standalone="no"?>
<!DOCTYPE svg PUBLIC "-//W3C//DTD SVG 20010904//EN"
 "http://www.w3.org/TR/2001/REC-SVG-20010904/DTD/svg10.dtd">
<svg version="1.0" xmlns="http://www.w3.org/2000/svg"
 width="512.000000pt" height="512.000000pt" viewBox="0 0 512.000000 512.000000"
 preserveAspectRatio="xMidYMid meet">

<g transform="translate(0.000000,512.000000) scale(0.100000,-0.100000)"
fill="#000000" stroke="none">
<path d="M997 5105 c-119 -17 -158 -29 -199 -63 -60 -51 -76 -147 -35 -213 12
-21 45 -55 73 -77 165 -130 264 -335 264 -546 l0 -91 -91 -88 c-230 -226 -387
-497 -469 -810 l-23 -88 -96 -97 c-53 -54 -126 -141 -164 -193 -131 -184 -264
-497 -254 -601 6 -64 44 -120 102 -148 70 -34 111 -25 254 55 67 37 124 65
127 62 4 -3 13 -46 21 -94 22 -126 75 -306 133 -447 267 -647 857 -1134 1563
-1290 202 -44 263 -51 492 -50 290 0 465 31 712 125 102 39 113 41 193 37 74
-3 95 -9 161 -42 42 -20 107 -63 144 -94 36 -31 92 -78 123 -104 136 -114 362
-197 635 -233 192 -25 243 -19 266 32 27 59 11 86 -79 139 -138 80 -289 260
-358 426 -70 168 -112 374 -112 551 0 317 109 561 330 738 38 31 44 40 44 73
0 30 -6 44 -29 64 -29 24 -32 25 -150 19 -147 -8 -223 -26 -340 -82 -99 -48
-161 -95 -231 -176 -60 -71 -83 -111 -158 -277 -119 -264 -223 -405 -339 -461
-93 -45 -397 -91 -397 -60 0 8 11 53 26 101 21 74 24 93 14 127 -28 107 -132
158 -246 121 -100 -33 -246 -117 -342 -198 l-54 -45 -36 18 c-229 108 -432
408 -493 725 -20 104 -17 323 5 395 49 162 172 315 311 387 87 45 231 96 282
100 l38 3 43 -85 c25 -50 54 -131 71 -198 31 -123 55 -161 118 -188 88 -38
161 -6 297 130 102 102 187 218 245 333 34 69 33 68 147 77 103 8 226 31 339
64 346 100 613 285 839 581 195 255 353 677 396 1060 18 149 -6 212 -94 252
-39 18 -84 19 -842 19 -1086 0 -1322 -15 -1842 -121 -84 -17 -154 -30 -156
-28 -1 2 -19 27 -39 55 -48 66 -193 205 -259 248 -248 158 -548 216 -881 171z
m459 -179 c291 -63 502 -223 625 -473 28 -56 57 -108 66 -114 8 -7 31 -13 50
-13 53 0 85 41 81 102 l-3 46 135 28 c150 30 443 71 650 90 143 14 1872 19
1885 7 8 -9 -9 -142 -36 -279 -26 -132 -103 -365 -162 -491 l-45 -97 -65 5
c-86 7 -141 -7 -316 -82 -80 -35 -191 -77 -246 -95 -120 -38 -406 -112 -528
-136 -75 -14 -91 -21 -113 -47 -28 -34 -28 -75 2 -108 28 -31 61 -30 221 5
309 68 536 138 743 229 123 54 190 76 190 61 0 -14 -113 -145 -178 -205 -214
-201 -466 -320 -792 -374 -62 -11 -209 -19 -420 -25 -474 -13 -613 -33 -865
-122 -189 -68 -271 -106 -388 -184 -223 -149 -410 -383 -503 -630 -24 -65 -24
-67 -7 -102 22 -44 61 -60 103 -42 24 10 41 36 93 144 55 112 181 305 192 294
2 -2 -4 -32 -13 -68 -22 -90 -21 -336 2 -445 69 -314 228 -582 446 -747 239
-182 620 -269 998 -227 232 25 362 73 464 172 99 95 215 292 313 531 54 132
153 234 285 295 86 39 115 47 104 30 -5 -8 -26 -40 -47 -72 -79 -119 -135
-278 -157 -445 -16 -113 -8 -336 15 -472 39 -222 142 -451 277 -612 46 -56 40
-58 -67 -29 -140 39 -262 108 -385 216 -125 110 -243 178 -360 205 -80 20
-204 15 -270 -8 -278 -101 -361 -122 -551 -143 -213 -24 -520 4 -734 66 -581
168 -1025 525 -1284 1035 -99 194 -174 429 -199 622 l-8 67 85 34 c181 72 346
107 541 113 80 3 155 7 168 10 61 12 84 93 39 138 -44 43 -230 44 -456 1 -231
-44 -541 -166 -784 -307 -38 -22 -71 -37 -74 -34 -11 11 50 184 103 291 173
351 532 657 996 849 88 36 242 89 294 100 87 19 105 133 26 165 -72 30 -491
-131 -751 -288 -46 -28 -86 -49 -88 -47 -2 2 5 26 16 54 59 149 174 335 276
449 54 60 58 63 93 57 76 -12 110 47 132 227 32 269 -72 547 -280 742 l-80 75
68 11 c114 18 133 19 272 16 74 -2 167 -10 206 -19z m1753 -2173 c-55 -93
-119 -174 -197 -250 -46 -46 -87 -83 -92 -83 -5 0 -14 25 -20 56 -16 74 -51
177 -83 241 l-27 52 53 5 c78 9 140 12 270 14 l119 2 -23 -37z m-231 -1575
c-2 -7 -12 -50 -23 -95 -18 -82 -19 -83 -49 -83 -48 0 -206 31 -206 41 0 23
221 145 268 148 8 1 12 -5 10 -11z"/>
<path d="M3500 4420 c-66 -22 -140 -96 -158 -157 -19 -63 -15 -132 12 -189 96
-207 400 -188 472 30 44 132 -35 281 -170 321 -64 19 -89 18 -156 -5z m149
-187 c46 -52 7 -133 -66 -133 -67 0 -105 74 -67 128 34 48 92 50 133 5z"/>
<path d="M2723 4260 c-42 -17 -65 -80 -78 -210 -14 -141 48 -329 147 -447 57
-68 141 -132 218 -167 59 -27 64 -28 95 -13 18 9 37 28 45 46 20 50 -1 86 -73
123 -71 35 -158 115 -194 176 -58 98 -82 266 -53 362 15 52 12 76 -12 104 -26
29 -63 39 -95 26z"/>
<path d="M2261 4163 c-30 -24 -41 -78 -41 -203 0 -264 104 -497 269 -602 56
-35 94 -36 126 -3 37 36 34 89 -6 124 -98 83 -119 106 -147 158 -52 99 -66
170 -67 342 l-1 154 -28 23 c-32 28 -75 31 -105 7z"/>
<path d="M4670 3054 c-200 -72 -289 -298 -190 -482 39 -73 83 -115 160 -151
79 -37 201 -37 280 0 70 33 132 95 167 167 24 49 28 69 28 142 0 71 -4 94 -26
141 -56 120 -166 191 -299 196 -50 2 -90 -2 -120 -13z m190 -177 c106 -56 119
-193 27 -274 -141 -124 -347 48 -254 212 45 80 143 106 227 62z"/>
<path d="M3825 2644 c-5 -1 -26 -5 -46 -8 -52 -9 -125 -61 -154 -110 -55 -94
-52 -195 8 -283 98 -144 316 -144 414 0 91 135 42 316 -102 377 -40 18 -101
30 -120 24z m72 -196 c25 -23 31 -74 13 -108 -14 -27 -64 -41 -100 -28 -36 12
-50 35 -50 79 0 70 85 106 137 57z"/>
<path d="M4315 2378 c-52 -28 -62 -92 -20 -133 31 -32 75 -32 111 -1 73 62 -7
181 -91 134z"/>
<path d="M333 1266 c-152 -50 -243 -172 -243 -326 0 -187 132 -327 319 -338
65 -4 86 -1 138 20 140 57 215 167 217 318 0 62 -5 86 -28 137 -34 74 -104
144 -173 174 -61 26 -174 34 -230 15z m163 -175 c113 -51 135 -192 43 -275
-41 -38 -90 -52 -147 -42 -44 7 -79 31 -110 77 -20 29 -23 44 -20 94 5 74 33
119 92 146 52 23 90 23 142 0z"/>
<path d="M969 741 c-69 -70 2 -171 96 -135 19 8 45 55 45 84 0 31 -53 80 -85
80 -16 0 -38 -12 -56 -29z"/>
<path d="M1276 496 c-102 -38 -161 -127 -161 -241 0 -104 45 -178 139 -228 55
-29 164 -30 220 -2 183 89 195 349 21 451 -57 33 -159 42 -219 20z m149 -182
c15 -16 25 -39 25 -56 0 -38 -48 -88 -85 -88 -32 0 -85 50 -85 80 0 79 93 120
145 64z"/>
</g>
</svg>
