<?xml version="1.0" standalone="no"?>
<!DOCTYPE svg PUBLIC "-//W3C//DTD SVG 20010904//EN"
 "http://www.w3.org/TR/2001/REC-SVG-20010904/DTD/svg10.dtd">
<svg version="1.0" xmlns="http://www.w3.org/2000/svg"
 width="512.000000pt" height="512.000000pt" viewBox="0 0 512.000000 512.000000"
 preserveAspectRatio="xMidYMid meet">

<g transform="translate(0.000000,512.000000) scale(0.100000,-0.100000)"
fill="#000000" stroke="none">
<path d="M3866 5110 c-237 -38 -443 -140 -611 -305 -133 -130 -213 -255 -272
-425 -46 -130 -58 -209 -57 -370 0 -164 19 -260 79 -410 l35 -86 -57 -140
c-49 -121 -56 -148 -57 -209 -1 -76 15 -117 63 -168 47 -51 98 -71 176 -71 61
1 88 8 209 57 l140 57 86 -35 c156 -62 245 -79 420 -79 174 1 245 13 390 68
167 62 333 180 447 315 368 438 346 1067 -52 1476 -158 162 -341 264 -560 311
-85 19 -298 26 -379 14z m379 -220 c313 -81 560 -328 646 -645 18 -65 22 -107
22 -225 0 -118 -4 -160 -22 -225 -86 -317 -329 -560 -646 -646 -65 -18 -107
-22 -225 -22 -169 0 -251 18 -388 83 -46 22 -94 40 -107 40 -13 0 -98 -29
-188 -65 -91 -36 -171 -65 -179 -65 -18 0 -38 20 -38 38 0 8 29 88 65 179 36
90 65 175 65 188 0 13 -18 61 -40 107 -65 137 -83 219 -83 388 0 118 4 160 22
225 92 341 366 595 709 660 104 20 282 13 387 -15z"/>
<path d="M3971 4606 c-48 -27 -50 -41 -51 -359 0 -323 3 -341 55 -365 51 -23
107 -7 131 39 19 37 21 603 2 644 -22 48 -88 68 -137 41z"/>
<path d="M3971 3606 c-87 -48 -50 -186 49 -186 51 0 100 49 100 99 0 75 -83
124 -149 87z"/>
<path d="M280 3191 c-57 -19 -110 -53 -148 -96 -72 -82 -72 -83 -72 -584 0
-261 4 -461 10 -481 24 -88 55 -117 369 -349 l301 -224 0 -103 0 -103 -57 20
c-129 46 -272 35 -424 -32 -38 -16 -93 -32 -122 -35 -73 -8 -106 -22 -122 -55
-29 -54 -8 -117 45 -139 43 -18 141 -7 225 25 170 65 178 67 245 63 43 -3 89
-16 137 -37 162 -71 301 -79 438 -26 166 64 178 67 245 63 43 -3 89 -16 137
-37 162 -71 301 -79 438 -26 166 64 178 67 245 63 43 -3 89 -16 136 -36 188
-83 320 -83 508 0 94 41 180 48 256 20 152 -55 152 -55 146 -82 -3 -14 -13
-54 -21 -90 -8 -36 -14 -81 -15 -101 0 -20 -3 -38 -6 -42 -3 -3 -24 1 -45 8
-106 38 -187 28 -214 -26 -19 -35 -19 -63 0 -98 15 -30 45 -45 110 -56 22 -4
70 -20 106 -36 183 -80 317 -79 503 3 47 20 93 33 136 36 67 4 79 1 245 -63
137 -53 276 -45 438 26 48 21 94 34 137 37 67 4 75 2 245 -63 84 -32 182 -43
225 -25 53 22 74 85 45 139 -16 33 -49 47 -122 55 -29 3 -83 19 -121 35 -180
79 -326 81 -491 6 -29 -14 -57 -25 -62 -25 -5 0 -9 64 -9 143 l0 142 78 28
c42 16 100 37 127 47 64 24 146 25 210 1 28 -11 81 -31 120 -46 84 -32 182
-43 225 -25 53 22 74 85 45 139 -16 33 -49 47 -122 55 -29 3 -83 19 -121 35
-180 79 -326 81 -491 6 -29 -14 -57 -25 -62 -25 -5 0 -9 97 -9 215 0 239 -5
262 -60 285 -41 17 -177 7 -290 -21 -99 -24 -240 -88 -331 -149 -85 -57 -226
-200 -273 -278 -22 -34 -43 -62 -48 -62 -5 0 -40 13 -78 30 -184 81 -317 80
-504 -2 -47 -20 -93 -33 -136 -36 -67 -4 -79 -1 -245 63 -115 45 -262 45 -377
0 -16 -7 -18 2 -18 92 l0 99 48 36 c26 19 162 121 302 226 156 116 264 204
279 226 50 76 50 81 51 562 0 507 0 507 -72 589 -22 25 -64 58 -92 73 -70 36
-188 38 -257 4 -64 -31 -117 -85 -148 -151 l-26 -56 -3 -350 -3 -350 -60 -39
-59 -38 -34 30 c-19 17 -42 34 -51 39 -13 8 -14 16 -6 54 13 57 14 361 0 418
-38 165 -183 311 -354 356 -162 42 -340 -10 -458 -134 -114 -120 -137 -192
-137 -431 0 -91 5 -185 11 -209 8 -38 7 -46 -6 -54 -9 -5 -32 -22 -51 -39
l-34 -30 -59 38 -60 39 -3 350 -3 350 -26 55 c-31 66 -86 122 -147 151 -48 24
-159 35 -202 20z m142 -220 l33 -29 5 -388 5 -387 35 -28 c20 -16 89 -65 154
-109 153 -104 155 -104 252 -4 l74 76 44 -40 c57 -52 156 -99 244 -114 132
-22 283 21 384 111 l48 43 74 -76 c97 -100 100 -100 255 5 66 45 134 94 153
109 l33 28 5 387 5 387 34 30 c29 26 39 30 75 25 27 -4 49 -15 63 -32 l23 -26
0 -428 c0 -413 -1 -429 -20 -454 -11 -14 -155 -125 -320 -247 -166 -123 -310
-234 -320 -248 -18 -22 -20 -41 -20 -195 l0 -170 -46 7 c-25 3 -76 19 -113 36
-183 80 -318 80 -500 1 -36 -16 -83 -32 -103 -36 l-38 -7 0 170 c0 153 -2 172
-20 194 -10 14 -154 125 -320 248 -166 123 -310 234 -320 248 -19 24 -20 43
-20 451 0 376 2 429 16 449 34 49 99 55 146 13z m1004 -86 c61 -18 125 -71
162 -133 26 -45 27 -53 30 -209 3 -130 0 -172 -12 -211 -22 -64 -71 -121 -137
-157 -46 -25 -65 -29 -129 -29 -91 0 -158 30 -214 95 -58 69 -68 115 -64 302
3 156 4 164 30 209 72 121 201 173 334 133z m2674 -1765 c0 -223 -4 -400 -9
-400 -5 0 -33 11 -62 25 -165 75 -311 73 -491 -6 -38 -16 -91 -33 -119 -36
l-51 -6 7 69 c38 363 275 646 616 738 30 8 66 15 82 15 l27 1 0 -400z"/>
<path d="M382 784 c-30 -8 -85 -28 -123 -45 -38 -16 -93 -32 -122 -35 -73 -8
-106 -22 -122 -55 -29 -54 -8 -117 45 -139 43 -18 141 -7 225 25 170 65 178
67 245 63 43 -3 89 -16 136 -36 188 -83 320 -83 508 0 47 20 93 33 136 36 67
4 79 1 245 -63 136 -53 276 -45 433 24 37 16 85 32 107 36 65 11 95 26 110 56
19 35 19 63 0 98 -30 59 -114 64 -243 15 -166 -64 -175 -66 -242 -62 -43 3
-89 16 -137 37 -162 71 -301 79 -438 26 -166 -64 -178 -67 -245 -63 -43 3 -89
16 -136 36 -141 62 -267 77 -382 46z"/>
<path d="M2511 686 c-87 -48 -50 -186 49 -186 51 0 100 49 100 99 0 75 -83
124 -149 87z"/>
<path d="M382 284 c-30 -8 -85 -28 -123 -45 -38 -16 -93 -32 -122 -35 -73 -8
-106 -22 -122 -55 -29 -54 -8 -117 45 -139 43 -18 141 -7 225 25 170 65 178
67 245 63 43 -3 89 -16 136 -36 97 -43 176 -62 254 -62 78 0 157 19 254 62 47
20 93 33 136 36 67 4 79 1 245 -63 137 -53 276 -45 438 26 48 21 94 34 137 37
67 4 79 1 245 -63 137 -53 276 -45 438 26 48 21 94 34 137 37 67 4 79 1 245
-63 137 -53 276 -45 438 26 48 21 94 34 137 37 67 4 79 1 245 -63 137 -53 276
-45 438 26 48 21 94 34 137 37 67 4 75 2 245 -63 84 -32 182 -43 225 -25 53
22 74 85 45 139 -16 33 -49 47 -122 55 -29 3 -84 19 -122 35 -160 71 -299 79
-436 26 -166 -64 -178 -67 -245 -63 -43 3 -89 16 -137 37 -162 71 -301 79
-438 26 -166 -64 -178 -67 -245 -63 -43 3 -89 16 -137 37 -162 71 -301 79
-438 26 -166 -64 -178 -67 -245 -63 -43 3 -89 16 -137 37 -162 71 -301 79
-438 26 -166 -64 -178 -67 -245 -63 -43 3 -89 16 -137 37 -162 71 -301 79
-438 26 -166 -64 -178 -67 -245 -63 -43 3 -89 16 -136 36 -141 62 -267 77
-382 46z"/>
</g>
</svg>
