<?xml version="1.0" standalone="no"?>
<!DOCTYPE svg PUBLIC "-//W3C//DTD SVG 20010904//EN"
 "http://www.w3.org/TR/2001/REC-SVG-20010904/DTD/svg10.dtd">
<svg version="1.0" xmlns="http://www.w3.org/2000/svg"
 width="512.000000pt" height="512.000000pt" viewBox="0 0 512.000000 512.000000"
 preserveAspectRatio="xMidYMid meet">

<g transform="translate(0.000000,512.000000) scale(0.100000,-0.100000)"
fill="#000000" stroke="none">
<path d="M2365 5114 c-350 -36 -630 -112 -910 -248 -258 -125 -462 -267 -665
-463 -227 -219 -388 -439 -525 -718 -168 -340 -248 -661 -262 -1040 -15 -426
73 -832 263 -1214 133 -269 271 -459 488 -677 221 -220 412 -357 681 -489 188
-92 309 -137 500 -185 500 -126 1002 -102 1490 71 149 53 407 182 540 271 570
379 972 974 1104 1633 39 195 46 276 45 515 -1 190 -5 261 -23 370 -54 338
-175 670 -341 941 l-60 97 0 531 c0 369 -3 537 -11 555 -28 60 -122 71 -170
20 l-24 -26 -3 -401 -3 -402 -127 125 c-133 131 -294 259 -447 355 -112 71
-338 182 -469 230 -129 48 -371 108 -516 130 -110 16 -464 28 -555 19z m478
-225 c324 -40 673 -162 943 -330 218 -136 473 -364 622 -557 l72 -94 0 -812 0
-811 -268 -268 -267 -267 -80 80 c-82 82 -117 100 -167 85 -27 -9 -673 -648
-694 -687 -8 -15 -14 -44 -14 -64 0 -32 9 -46 82 -120 l82 -84 -82 -84 c-72
-73 -82 -88 -82 -119 0 -50 17 -82 55 -102 55 -30 90 -16 180 75 l79 80 81
-80 c83 -81 114 -97 162 -85 39 9 699 668 713 711 16 47 -1 79 -88 167 l-77
77 295 295 295 295 5 668 c6 752 -2 702 76 493 148 -394 178 -875 83 -1304
-73 -332 -235 -670 -455 -949 -83 -106 -304 -322 -414 -404 -345 -258 -724
-412 -1148 -465 -142 -18 -433 -15 -577 5 -435 62 -818 225 -1160 494 -91 72
-296 277 -369 370 -272 344 -441 751 -497 1190 -16 125 -16 419 0 547 52 415
208 803 461 1140 95 127 326 359 452 453 205 153 430 272 663 351 213 72 367
102 625 125 67 6 319 -3 413 -15z m922 -3749 l-245 -245 -137 138 -138 137
245 245 245 245 137 -137 138 -138 -245 -245z"/>
<path d="M2355 4469 c-368 -38 -739 -197 -1030 -441 -125 -104 -146 -129 -151
-174 -6 -51 12 -85 59 -107 52 -26 77 -15 188 83 295 260 631 401 1033 432
156 11 180 20 202 75 20 47 4 97 -40 124 -34 21 -113 23 -261 8z"/>
<path d="M2438 3620 c-369 -46 -683 -275 -843 -613 -192 -407 -102 -894 223
-1209 321 -310 792 -392 1187 -204 238 112 409 283 520 519 259 548 2 1199
-568 1436 -147 61 -364 91 -519 71z m277 -221 c157 -29 341 -127 452 -241 112
-116 196 -272 229 -428 7 -36 14 -112 14 -170 0 -58 -7 -134 -14 -170 -33
-156 -117 -312 -229 -428 -75 -77 -209 -164 -310 -200 -121 -44 -200 -55 -341
-50 -102 4 -137 10 -218 38 -296 99 -522 355 -577 655 -15 81 -13 247 3 325
71 333 328 592 661 665 74 17 251 19 330 4z"/>
<path d="M2460 2748 c-25 -14 -58 -44 -75 -67 -27 -39 -30 -50 -30 -120 0 -68
3 -82 27 -117 15 -21 44 -50 65 -64 31 -21 48 -25 113 -25 65 0 82 4 113 25
21 14 50 43 65 64 24 35 27 49 27 116 0 67 -3 81 -27 116 -44 62 -90 88 -167
92 -55 3 -74 -1 -111 -20z"/>
</g>
</svg>
